<?xml version="1.0" encoding="UTF-8"?>
<svg width="111px" height="35px" viewBox="0 0 111 35" version="1.1" xmlns="http://www.w3.org/2000/svg"
     xmlns:xlink="http://www.w3.org/1999/xlink">
    <!-- Generator: Sketch 55.2 (78181) - https://sketchapp.com -->
    <title>Radian Primary Logo</title>
    <style>
        .logo-char {
            fill: #112235;
        }
    </style>
    <defs>
        <symbol id="asset" viewBox="0 0 111 35">
            <g id="3.-Brand-Style" stroke="none" stroke-width="1" fill="none" fill-rule="evenodd">
                <g id="Logos">
                    <g id="Radian_Primary_Logo_Full_Color_Pantone">
                        <path
                            d="M67.3214037,12.8747458 L63.484171,14.6442015 C63.2415789,14.7558565 63.0855227,15.0039508 63.0855227,15.2775805 L63.0828488,34.0736662 C63.0828488,34.3558078 63.3047793,34.584375 63.5787284,34.584375 L67.524374,34.584375 C67.7980801,34.584375 68.0197674,34.3558078 68.0197674,34.0741669 L68.0197674,13.3403921 C68.0197674,13.1669013 67.9354193,13.0069293 67.7937047,12.9122979 C67.6519901,12.8174163 67.4760015,12.8033968 67.3214037,12.8747458"
                            id="Fill-1" class="logo-char" fill="currentColor"></path>
                        <path
                            d="M110.801231,20.234127 C110.801231,15.1133301 108.899636,12.8296875 104.63482,12.8296875 C101.877852,12.8296875 99.0593992,14.4341455 97.3860351,16.9368395 L97.3860351,13.4355212 C97.3860351,13.2615318 97.3004486,13.1015616 97.1568206,13.0071818 C97.0141764,12.9128019 96.8361171,12.8990329 96.6792085,12.9696301 L89.9840306,16.0240834 C89.8138413,16.1016902 89.703415,16.2611597 89.6889047,16.4504201 C89.6746403,16.6396806 89.759489,16.8144211 89.9161517,16.9178133 L92.2865048,18.48497 L92.2865048,34.0741729 C92.2865048,34.3553098 92.5112924,34.584375 92.787973,34.584375 L96.8329199,34.584375 C97.1093546,34.584375 97.3341421,34.3553098 97.3341421,34.0741729 L97.3277478,20.1184679 C97.5117096,18.3425239 99.5554567,16.0896737 101.589858,16.0896737 C104.083918,16.0896737 105.759988,17.9700113 105.759988,20.7688629 L105.759988,34.0741729 C105.759988,34.3553098 105.985021,34.584375 106.261456,34.584375 L110.304927,34.584375 C110.581608,34.584375 110.806395,34.3553098 110.806395,34.0741729 L110.801231,20.234127"
                            id="Fill-2" class="logo-char" fill="currentColor"></path>
                        <path
                            d="M54.1119307,19.6002401 L54.1119307,28.2333433 C54.1119307,29.6128998 52.2567509,32.8337816 48.8182583,32.8337816 C45.1634017,32.8337816 42.7922392,29.5158958 42.7922392,23.7851614 C42.7922392,17.9724235 44.7574429,14.4097778 48.8008214,14.4097778 C50.8544373,14.4097778 54.1119307,15.7075809 54.1119307,19.6002401 Z M58.5374458,0.044690092 L51.948291,3.04781296 C51.7780978,3.12556614 51.6680739,3.28482265 51.6538297,3.47383038 C51.6390944,3.66283812 51.7238226,3.83734526 51.8802628,3.9410995 L54.1119307,5.41590984 L54.1119307,14.1267662 C52.5529313,13.2049785 50.6876823,12.7187086 48.7082343,12.7187086 C41.7369429,12.7187086 37.5746993,16.8506277 37.575436,23.7891615 C37.7805029,30.3889315 41.7175414,34.8396136 47.3550386,34.8626146 C47.3550386,34.8626146 47.9820275,34.8641146 48.1033485,34.8626146 C50.4347255,34.8513641 52.6420801,33.6893166 54.010748,31.7509873 L54.1119307,31.5919807 L54.1119307,33.9348266 C54.1119307,34.2158381 54.3366447,34.4445975 54.6124413,34.4445975 L58.7422671,34.4443474 C59.0183093,34.4443474 59.2430233,34.2155881 59.2430233,33.9348266 L59.2430233,0.510209137 C59.2430233,0.336702039 59.1575583,0.176695493 59.0146254,0.0824416365 C58.8716926,-0.01231224 58.6924126,-0.0260628026 58.5374458,0.044690092 L58.5374458,0.044690092 Z"
                            id="Fill-3" class="logo-char" fill="currentColor"></path>
                        <path
                            d="M16.6625939,13.6954319 C15.8611023,12.9246047 14.5415044,12.733087 13.6530063,12.8805431 L13.6530063,12.8807934 C13.5829587,12.8865515 13.414353,12.9246047 13.4109121,12.9256061 C11.1915102,13.4270569 9.02273913,14.9514372 7.69380159,16.9317047 L7.69380159,13.3404358 C7.69380159,13.166693 7.6085156,13.0067194 7.46522531,12.9120872 C7.32242658,12.8172046 7.14325228,12.8036857 6.98767294,12.8745347 L0.296286821,15.9288031 C0.12620641,16.0064116 0.0160965485,16.1658845 0.00159547293,16.3553993 C-0.0129056026,16.5446638 0.072134603,16.7196584 0.228451282,16.8230529 L2.60785657,18.3967522 L2.60294095,34.074162 C2.60294095,34.3553049 2.82783051,34.584375 3.10384251,34.584375 L7.19290003,34.584375 C7.46891202,34.584375 7.69380159,34.3553049 7.69380159,34.074162 L7.69331002,19.9989914 C7.87199277,18.4217872 9.6035195,16.3266091 11.5078302,16.0306955 C11.4697342,16.7552081 11.7619677,17.5167724 12.3169411,18.1286275 C13.5687034,19.3087768 15.4784213,19.2877474 16.6640686,18.0793085 C17.8499616,16.8706194 17.8499616,14.9048722 16.6640686,13.696934 L16.6625939,13.6954319"
                            id="Fill-4" class="logo-char" fill="currentColor"></path>
                        <path
                            d="M68.0195242,5.81318929 C68.0195242,5.63832715 67.9351346,5.47757492 67.7933501,5.382333 C67.6515657,5.28709109 67.4754904,5.27272921 67.3208165,5.34428663 L63.4816935,7.12541125 C63.2389819,7.23778664 63.0828488,7.48748172 63.0828488,7.76287699 L63.083092,11.4790755 C63.083092,11.6539376 63.1674817,11.8149418 63.3092661,11.9099318 C63.4510505,12.0054257 63.6268827,12.0192836 63.7817998,11.9477262 L67.621166,10.1668535 C67.8636344,10.0544781 68.0197674,9.8045311 68.0197674,9.52938778 L68.0195242,5.81318929"
                            id="Fill-5" fill="#00ABA2"></path>
                        <path
                            d="M82.6224591,28.5711102 C82.6224591,29.6907524 81.7276046,30.7974565 80.9077929,31.4568013 C79.8941001,32.2719009 78.5113445,32.5169781 77.3214857,31.9218261 C77.0946351,31.808369 76.8815628,31.6665476 76.6908803,31.4981037 C74.7358311,29.7743523 75.7650245,26.56919 77.5018345,25.1228611 C78.121122,24.6070793 78.8324292,24.2199319 79.5658802,23.8979725 C79.5658802,23.8979725 82.2014813,22.7054292 82.6224591,22.5108603 L82.6224591,28.5711102 Z M87.7612908,21.7196465 C87.7612908,18.3547485 87.0694209,16.0181796 85.6492669,14.5760805 C84.482044,13.4014514 82.8571831,12.8296875 80.6910299,12.8296875 C80.6186936,12.8296875 77.9892435,12.8356589 76.2504652,13.7667036 C73.7172175,15.1234611 73.0012355,16.4866877 72.6159338,17.210723 C72.5376925,17.3505538 72.4355851,17.642656 72.4294341,17.6548477 C71.9720421,18.9877195 72.5738607,20.4783365 73.837532,21.135442 C75.2333279,21.8535059 76.8882059,21.3118479 77.6041879,19.9003523 C77.9530754,19.2126432 78.0254117,18.4338699 77.8088948,17.6976429 C77.5862269,16.9551957 77.0988178,16.3528282 76.4249089,16.0122082 C76.2743313,15.9268666 76.1060386,15.8661571 75.9313488,15.8111702 C76.0637194,15.6166013 76.3946458,15.2513491 77.158852,14.8803744 C78.3022089,14.3327449 79.3973415,14.3083616 80.3239354,14.8131958 C81.4914043,15.4461669 82.2976837,16.8638827 82.5444638,18.6893971 C82.598593,19.1700968 82.6224591,19.6082501 82.6224591,20.0461546 L82.6224591,21.0015826 C81.2303539,21.6370417 79.8382486,22.2727497 78.4461434,22.90796 C77.445983,23.3645252 76.4458225,23.8210904 75.4456621,24.2776556 C74.3768559,24.7655708 73.2728658,25.1527182 72.4102428,25.9919522 C71.3579215,27.015554 70.7625,28.4325234 70.7625,29.9099535 L70.7625,30.0316212 C70.7625,34.8144839 76.1901849,34.8692219 76.2142971,34.8630017 L76.6052577,34.8630017 C78.9399495,34.85081 81.1543269,33.6948417 82.5203517,31.7658226 L82.6224591,31.6075798 L82.6224591,33.9379284 C82.6224591,34.217839 82.8512781,34.4492317 83.1280753,34.4492317 L87.2618257,34.4492317 C87.4001013,34.4492317 87.5206618,34.3944936 87.6168642,34.2972092 C87.7130666,34.2058961 87.7674419,34.0780081 87.7674419,33.9379284 L87.7612908,21.7196465 L87.7612908,21.7196465 Z"
                            id="Fill-6" class="logo-char" fill="currentColor"></path>
                        <path
                            d="M29.9621656,28.5711102 C29.9621656,29.6907524 29.0672981,30.7974565 28.2474746,31.4568013 C27.2337672,32.2719009 25.8507455,32.5169781 24.6611155,31.9218261 C24.4340155,31.808369 24.2211862,31.6665476 24.0302549,31.4981037 C22.0754235,29.7743523 23.1046318,26.56919 24.8414669,25.1228611 C25.4607634,24.6070793 26.1720809,24.2199319 26.9055425,23.8979725 C26.9055425,23.8979725 29.5409357,22.7054292 29.9621656,22.5108603 L29.9621656,28.5711102 Z M35.1010717,21.7196465 C35.1010717,18.3547485 34.4089457,16.0181796 32.9887711,14.5760805 C31.8215313,13.4014514 30.196893,12.8296875 28.0307085,12.8296875 C27.9583711,12.8296875 25.328883,12.8356589 23.5898335,13.7667036 C21.0565491,15.1234611 20.3405567,16.4866877 19.9554956,17.210723 C19.8772531,17.3505538 19.7748982,17.642656 19.7689931,17.6548477 C19.3115945,18.9877195 19.9134218,20.4783365 21.1768654,21.135442 C22.5729275,21.8535059 24.2275834,21.3118479 24.9435757,19.9003523 C25.2927143,19.2126432 25.3650517,18.4338699 25.1482856,17.6976429 C24.9256144,16.9551957 24.4381983,16.3528282 23.7642797,16.0122082 C23.6139459,15.9268666 23.4454048,15.8661571 23.2709585,15.8111702 C23.403331,15.6166013 23.7342622,15.2513491 24.4984795,14.8803744 C25.6418528,14.3327449 26.7370013,14.3083616 27.6636086,14.8131958 C28.8308484,15.4461669 29.6373855,16.8638827 29.8839231,18.6893971 C29.9380531,19.1700968 29.9621656,19.6082501 29.9621656,20.0461546 L29.9621656,21.0015826 C28.5700402,21.6370417 27.1779148,22.2727497 25.7855434,22.90796 C24.7853685,23.3645252 23.7851936,23.8210904 22.7852647,24.2776556 C21.7161971,24.7655708 20.612191,25.1527182 19.7498015,25.9919522 C18.6972189,27.015554 18.1020349,28.4325234 18.1020349,29.9099535 L18.1020349,30.0316212 C18.1020349,34.8144839 23.5295523,34.8692219 23.5539108,34.8630017 L23.9448771,34.8630017 C26.2796027,34.85081 28.4940121,33.6948417 29.8598107,31.7658226 L29.9621656,31.6075798 L29.9621656,33.9379284 C29.9621656,34.217839 30.1909879,34.4492317 30.4677891,34.4492317 L34.6015993,34.4492317 C34.7398769,34.4492317 34.8601931,34.3944936 34.956643,34.2972092 C35.0528467,34.2058961 35.1069767,34.0780081 35.1069767,33.9379284 L35.1010717,21.7196465 L35.1010717,21.7196465 Z"
                            id="Fill-7" class="logo-char" fill="currentColor"></path>
                    </g>
                </g>
            </g>
        </symbol>
    </defs>
    <g>
        <use xlink:href="#asset"></use>
    </g>
</svg>
